<svg width="16" height="12" viewBox="0 0 16 12" fill="none" xmlns="http://www.w3.org/2000/svg">
<path fill-rule="evenodd" clip-rule="evenodd" d="M8.74718 0C9.30266 0 9.66423 0.452391 9.5548 1.00684L7.58214 10.9932C7.47249 11.5476 6.93156 12 6.37609 12C5.82099 11.9997 5.46004 11.5474 5.56945 10.9932L7.5421 1.00684C7.65175 0.452429 8.19188 2.85862e-05 8.74718 0ZM4.77745 5C5.33285 5.00003 5.69453 5.45074 5.58507 6.00586L5.03234 8.80273C4.92254 9.35794 4.38273 9.80859 3.82726 9.80859C3.27198 9.80852 2.91004 9.35792 3.01964 8.80273L3.57238 6.00586C3.68227 5.45075 4.22219 5 4.77745 5ZM14.2482 5.51367C14.804 5.51367 15.1656 5.96468 15.0558 6.52051C14.9457 7.07609 14.4064 7.52637 13.8507 7.52637C13.2952 7.52626 12.9336 7.07604 13.0431 6.52051C13.1528 5.96482 13.6924 5.5139 14.2482 5.51367ZM11.505 2.7168C12.0603 2.7168 12.4221 3.16752 12.3126 3.72266L11.7599 6.51953C11.6501 7.07473 11.1101 7.52539 10.5548 7.52539C9.99944 7.52527 9.63759 7.07468 9.74718 6.51953L10.2999 3.72266C10.4098 3.16755 10.9496 2.71682 11.505 2.7168ZM1.22472 4.70605C1.78049 4.70605 2.14206 5.15615 2.03234 5.71191C1.92253 6.26774 1.38307 6.71875 0.827259 6.71875C0.271501 6.7187 -0.0901603 6.2677 0.0196414 5.71191C0.129502 5.15626 0.669057 4.70621 1.22472 4.70605Z" fill="#71717A"/>
</svg>
